<svg xmlns="http://www.w3.org/2000/svg" xmlns:xlink="http://www.w3.org/1999/xlink" width="70" height="70" viewBox="0 0 70 70">
  <defs>
    <filter id="Ellipse_17" x="0" y="0" width="70" height="70" filterUnits="userSpaceOnUse">
      <feOffset dy="2" input="SourceAlpha"/>
      <feGaussianBlur stdDeviation="5" result="blur"/>
      <feFlood flood-opacity="0.102"/>
      <feComposite operator="in" in2="blur"/>
      <feComposite in="SourceGraphic"/>
    </filter>
  </defs>
  <g id="Group_162" data-name="Group 162" transform="translate(2258 -1919)">
    <g transform="matrix(1, 0, 0, 1, -2258, 1919)" filter="url(#Ellipse_17)">
      <circle id="Ellipse_17-2" data-name="Ellipse 17" cx="20" cy="20" r="20" transform="translate(15 13)" fill="#fff"/>
    </g>
    <g id="googlesearch" transform="translate(-2235 1940)">
      <path id="Path_92" data-name="Path 92" d="M5.319,146.29l-.835,3.119-3.053.065a12.021,12.021,0,0,1-.088-11.205h0l2.718.5,1.191,2.7a7.162,7.162,0,0,0,.067,4.822Z" transform="translate(0 -131.787)" fill="#fbbb00"/>
      <path id="Path_93" data-name="Path 93" d="M273.155,208.176a12,12,0,0,1-4.278,11.6h0l-3.424-.175-.485-3.025a7.152,7.152,0,0,0,3.077-3.652h-6.417v-4.747h11.527Z" transform="translate(-249.364 -198.418)" fill="#518ef8"/>
      <path id="Path_94" data-name="Path 94" d="M48.591,316.263h0a12,12,0,0,1-18.082-3.671l3.889-3.183a7.137,7.137,0,0,0,10.284,3.654Z" transform="translate(-29.079 -294.905)" fill="#28b446"/>
      <path id="Path_95" data-name="Path 95" d="M46.942,2.763,43.054,5.945a7.136,7.136,0,0,0-10.52,3.737l-3.909-3.2h0A12,12,0,0,1,46.942,2.763Z" transform="translate(-27.282)" fill="#f14336"/>
    </g>
  </g>
</svg>
